<svg xmlns="http://www.w3.org/2000/svg" viewBox="0 0 79.02 79.01"><defs><style>.cls-1,.cls-2{fill:none;}.cls-1,.cls-2,.cls-3{stroke:#fff;stroke-width:1.5px;}.cls-1{stroke-miterlimit:10;}.cls-2,.cls-3{stroke-linecap:round;stroke-linejoin:round;}.cls-3{fill:#fcfcfc;}</style></defs><title>Asset 14</title><g id="Layer_2" data-name="Layer 2"><g id="Layer_1-2" data-name="Layer 1"><path class="cls-1" d="M39.51.75A38.76,38.76,0,1,0,78.27,39.51,38.8,38.8,0,0,0,39.51.75Z"/><path class="cls-2" d="M39.78,16.1a17,17,0,0,0-7,32.46h14a17,17,0,0,0-7-32.46Z"/><path class="cls-2" d="M32.8,48.56v9.12a4.43,4.43,0,0,0,4.43,4.43h5.21a4.43,4.43,0,0,0,4.43-4.43V48.56Z"/><line class="cls-2" x1="32.8" y1="52.45" x2="42.29" y2="52.45"/><line class="cls-2" x1="32.8" y1="55.33" x2="42.29" y2="55.33"/><line class="cls-2" x1="32.8" y1="58.21" x2="42.29" y2="58.21"/><polygon class="cls-3" points="35.16 34.84 39.64 34.84 39.64 41.56 44.39 31.93 40.71 31.93 40.71 25.75 35.16 34.84"/><path class="cls-2" d="M32.8,22a13,13,0,0,0-6,11c0,.25,0,.5,0,.75"/></g></g></svg>