<svg xmlns="http://www.w3.org/2000/svg" viewBox="0 0 79.02 79.01"><defs><style>.cls-1,.cls-2{fill:none;stroke:#fff;stroke-width:1.5px;}.cls-1{stroke-miterlimit:10;}.cls-2{stroke-linecap:round;stroke-linejoin:round;}.cls-3{fill:#fff;}</style></defs><title>Asset 14</title><g id="Layer_2" data-name="Layer 2"><g id="Layer_1-2" data-name="Layer 1"><path class="cls-1" d="M39.51.75A38.76,38.76,0,1,0,78.27,39.51,38.8,38.8,0,0,0,39.51.75Z"/><line class="cls-2" x1="57.26" y1="53.1" x2="62.2" y2="53.1"/><path class="cls-3" d="M22.69,36.16a1.39,1.39,0,0,1,.86-1.29,1.36,1.36,0,0,1,.53-.11,1.39,1.39,0,0,1,.53,2.67,1.37,1.37,0,0,1-.53.11A1.39,1.39,0,0,1,22.69,36.16Z"/><path class="cls-3" d="M28.34,36.16a1.39,1.39,0,0,1,.86-1.29,1.36,1.36,0,0,1,.53-.11,1.39,1.39,0,0,1,.53,2.67,1.37,1.37,0,0,1-.53.11A1.39,1.39,0,0,1,28.34,36.16Z"/><line class="cls-2" x1="59.73" y1="24.11" x2="59.73" y2="60.35"/><line class="cls-2" x1="40.91" y1="21.29" x2="40.91" y2="24.11"/><line class="cls-2" x1="44.68" y1="21.29" x2="44.68" y2="24.11"/><line class="cls-2" x1="38.09" y1="24.11" x2="38.09" y2="60.35"/><line class="cls-2" x1="50.44" y1="24.11" x2="50.44" y2="60.35"/><line class="cls-2" x1="54.91" y1="24.11" x2="54.91" y2="60.35"/><line class="cls-2" x1="57.26" y1="24.11" x2="62.2" y2="24.11"/><line class="cls-2" x1="50.67" y1="26" x2="54.91" y2="26"/><line class="cls-2" x1="50.67" y1="29.88" x2="54.91" y2="29.88"/><line class="cls-2" x1="50.67" y1="33.76" x2="54.91" y2="33.76"/><line class="cls-2" x1="50.67" y1="37.64" x2="54.91" y2="37.64"/><line class="cls-2" x1="50.67" y1="41.52" x2="54.91" y2="41.52"/><line class="cls-2" x1="50.67" y1="45.41" x2="54.91" y2="45.41"/><line class="cls-2" x1="50.67" y1="49.29" x2="54.91" y2="49.29"/><line class="cls-2" x1="50.67" y1="53.17" x2="54.91" y2="53.17"/><line class="cls-2" x1="50.67" y1="57.05" x2="54.91" y2="57.05"/><line class="cls-2" x1="57.26" y1="31.36" x2="62.2" y2="31.36"/><line class="cls-2" x1="57.26" y1="38.61" x2="62.2" y2="38.61"/><line class="cls-2" x1="57.26" y1="45.85" x2="62.2" y2="45.85"/><line class="cls-2" x1="35.62" y1="53.1" x2="47.73" y2="53.1"/><line class="cls-2" x1="15.38" y1="60.35" x2="62.67" y2="60.35"/><line class="cls-2" x1="35.62" y1="24.11" x2="47.73" y2="24.11"/><line class="cls-2" x1="35.62" y1="31.36" x2="47.73" y2="31.36"/><line class="cls-2" x1="38.56" y1="21.05" x2="47.73" y2="21.05"/><line class="cls-2" x1="35.62" y1="38.61" x2="47.73" y2="38.61"/><line class="cls-2" x1="35.62" y1="45.85" x2="47.73" y2="45.85"/><path class="cls-2" d="M33.15,31.36H20a1.88,1.88,0,0,0-1.88,1.88V59.5"/><path class="cls-2" d="M38.09,27.6H25.62a1.88,1.88,0,0,0-1.88,1.88v1.88"/><path class="cls-2" d="M30,26.75V17.64a1.88,1.88,0,0,1,1.88-1.88h9.41a1.88,1.88,0,0,1,1.88,1.88"/><path class="cls-2" d="M24.79,60.35V54.46a1.88,1.88,0,0,1,1.88-1.88H29a1.88,1.88,0,0,1,1.88,1.88v5.88"/></g></g></svg>