<svg xmlns="http://www.w3.org/2000/svg" viewBox="0 0 79.02 79.01"><defs><style>.cls-1,.cls-3{fill:none;stroke:#fff;stroke-width:1.5px;}.cls-1{stroke-miterlimit:10;}.cls-2{fill:#fff;}.cls-3{stroke-linecap:round;stroke-linejoin:round;}</style></defs><title>Asset 13</title><g id="Layer_2" data-name="Layer 2"><g id="Layer_1-2" data-name="Layer 1"><path class="cls-1" d="M39.51.75A38.76,38.76,0,1,0,78.27,39.51,38.8,38.8,0,0,0,39.51.75Z"/><path class="cls-2" d="M43.6,57.43a1.24,1.24,0,0,1-1.24,1.24H21.66a1.24,1.24,0,0,1-1.24-1.24h0a1.24,1.24,0,0,1,1.24-1.24h20.7a1.24,1.24,0,0,1,1.24,1.24Z"/><rect class="cls-2" x="22.12" y="58.67" width="6.18" height="3.02" rx="0.93" ry="0.93"/><rect class="cls-2" x="35.64" y="58.67" width="6.18" height="3.02" rx="0.93" ry="0.93"/><path class="cls-2" d="M43.6,53a1,1,0,0,1-1,.93H21.4a1,1,0,0,1-1-.93V43.91a1,1,0,0,1,1-.93H42.63a1,1,0,0,1,1,.93Z"/><polyline class="cls-3" points="37.29 42.98 40.13 17.33 49.17 17.33 53.34 56.51"/><path class="cls-3" d="M43.6,61.68H55.73a.93.93,0,0,0,.93-.93v-2.4a.93.93,0,0,0-.93-.93h-10"/><line class="cls-3" x1="38.12" y1="35.42" x2="52.37" y2="47.38"/><line class="cls-3" x1="38.12" y1="35.42" x2="50.13" y2="26.4"/><line class="cls-3" x1="50.13" y1="26.4" x2="40.13" y2="17.33"/><line class="cls-3" x1="49.17" y1="17.33" x2="39.12" y2="26.4"/><line class="cls-3" x1="39.12" y1="26.4" x2="50.13" y2="26.4"/><line class="cls-3" x1="39.12" y1="26.4" x2="51.09" y2="35.42"/><line class="cls-3" x1="38.12" y1="35.42" x2="51.09" y2="35.42"/><line class="cls-3" x1="42.63" y1="42.98" x2="51.09" y2="35.42"/><line class="cls-3" x1="43.6" y1="49.24" x2="52.48" y2="49.24"/></g></g></svg>