<svg xmlns="http://www.w3.org/2000/svg" viewBox="0 0 79.02 79.01"><defs><style>.cls-1,.cls-2{fill:none;stroke:#fff;stroke-width:1.5px;}.cls-1{stroke-miterlimit:10;}.cls-2{stroke-linecap:round;stroke-linejoin:round;}</style></defs><title>Asset 13</title><g id="Layer_2" data-name="Layer 2"><g id="Layer_1-2" data-name="Layer 1"><path class="cls-1" d="M39.51.75A38.76,38.76,0,1,0,78.27,39.51,38.8,38.8,0,0,0,39.51.75Z"/><path class="cls-2" d="M61.92,21.46H17.1a.84.84,0,0,0-.84.84v32a.84.84,0,0,0,.84.84h7.23V49a.84.84,0,0,1,.84-.84h3.46a.84.84,0,0,1,.84.84v6.18H51.24V49a.84.84,0,0,1,.84-.84h3.46a.84.84,0,0,1,.84.84v6.18h5.55a.84.84,0,0,0,.84-.84v-32A.84.84,0,0,0,61.92,21.46Z"/><line class="cls-2" x1="16.26" y1="44.6" x2="62.76" y2="44.6"/><line class="cls-2" x1="46" y1="26.8" x2="46" y2="41.04"/><line class="cls-2" x1="42.65" y1="26.8" x2="42.65" y2="41.04"/><line class="cls-2" x1="27.57" y1="26.8" x2="27.57" y2="41.04"/><line class="cls-2" x1="24.22" y1="26.8" x2="24.22" y2="41.04"/><line class="cls-2" x1="20.87" y1="26.8" x2="20.87" y2="41.04"/><line class="cls-2" x1="35.11" y1="26.8" x2="35.11" y2="41.04"/><line class="cls-2" x1="20.87" y1="31.41" x2="16.26" y2="31.41"/><line class="cls-2" x1="38.88" y1="21.46" x2="38.88" y2="44.6"/><line class="cls-2" x1="27.57" y1="31.41" x2="42.65" y2="31.41"/><line class="cls-2" x1="46" y1="31.41" x2="62.76" y2="31.41"/></g></g></svg>