<svg xmlns="http://www.w3.org/2000/svg" viewBox="0 0 79.02 79.01"><defs><style>.cls-1,.cls-3{fill:none;stroke:#fff;stroke-width:1.5px;}.cls-1{stroke-miterlimit:10;}.cls-2{fill:#fff;}.cls-3{stroke-linecap:round;stroke-linejoin:round;}</style></defs><title>Asset 13</title><g id="Layer_2" data-name="Layer 2"><g id="Layer_1-2" data-name="Layer 1"><path class="cls-1" d="M39.51.75A38.76,38.76,0,1,0,78.27,39.51,38.8,38.8,0,0,0,39.51.75Z"/><path class="cls-1" d="M23.21,45.86l-3,2.69v6.54"/><path class="cls-2" d="M27.63,41.89a3,3,0,0,0-4.21,4.21,3,3,0,0,0,4.21,0A3,3,0,0,0,27.63,41.89Z"/><path class="cls-2" d="M22.29,56a3,3,0,0,0-4.21,4.21,3,3,0,0,0,4.21,0A3,3,0,0,0,22.29,56Z"/><path class="cls-1" d="M20.19,23.93v6.54l3,2.69"/><path class="cls-2" d="M27.63,32.92a3,3,0,0,0-4.21,0A3,3,0,0,0,25.53,38a3,3,0,0,0,2.1-5.08Z"/><path class="cls-2" d="M22.29,18.86a3,3,0,0,0-4.21,0,3,3,0,1,0,4.21,0Z"/><path class="cls-2" d="M32.24,56A3,3,0,0,0,28,60.16a3,3,0,0,0,4.21,0A3,3,0,0,0,32.24,56Z"/><path class="cls-3" d="M30.13,23.93v6.54l3,2.69v12.7l-3,2.69v6.54"/><path class="cls-3" d="M48.84,23.93v6.54l-3,2.69v12.7l3,2.69v6.54"/><path class="cls-2" d="M32.24,18.86a3,3,0,0,0-4.21,0,3,3,0,1,0,4.21,0Z"/><path class="cls-1" d="M58.83,55.08V48.54l-3-2.69"/><path class="cls-2" d="M51.38,46.09a3,3,0,0,0,4.21,0,3,3,0,1,0-4.21,0Z"/><path class="cls-2" d="M56.72,60.16a3,3,0,0,0,4.21,0,3,3,0,1,0-4.21,0Z"/><path class="cls-1" d="M55.8,33.16l3-2.69V23.93"/><path class="cls-2" d="M51.38,37.13a3,3,0,1,0,4.21-4.21,3,3,0,0,0-4.21,0A3,3,0,0,0,51.38,37.13Z"/><path class="cls-2" d="M56.72,23.06a3,3,0,0,0,4.21-4.21,3,3,0,0,0-4.21,0A3,3,0,0,0,56.72,23.06Z"/><path class="cls-2" d="M46.78,60.16a3,3,0,0,0,4.21,0,3,3,0,1,0-4.21,0Z"/><path class="cls-2" d="M46.78,23.06A3,3,0,1,0,51,18.86a3,3,0,0,0-4.21,0A3,3,0,0,0,46.78,23.06Z"/><path class="cls-2" d="M41.79,56a3,3,0,0,0-4.21,4.21,3,3,0,0,0,4.21,0A3,3,0,0,0,41.79,56Z"/><path class="cls-2" d="M41.79,18.86a3,3,0,0,0-4.21,0,3,3,0,1,0,4.21,0Z"/><line class="cls-1" x1="39.68" y1="23.93" x2="39.68" y2="55.08"/></g></g></svg>