<svg xmlns="http://www.w3.org/2000/svg" viewBox="0 0 79.02 79.01"><defs><style>.cls-1{fill:#3e4651;}.cls-2{fill:none;stroke:#3e4651;stroke-miterlimit:10;stroke-width:1.5px;}</style></defs><title>Asset 1</title><g id="Layer_2" data-name="Layer 2"><g id="Layer_1-2" data-name="Layer 1"><path class="cls-1" d="M44.89,63.09h0a7.88,7.88,0,0,1-6-2.68,7.88,7.88,0,0,1-6,2.68h0a7.88,7.88,0,0,1-6-2.68,7.89,7.89,0,0,1-6,2.68h0a7.9,7.9,0,0,1-6.55-3.41.7.7,0,1,1,1.15-.8,6.59,6.59,0,0,0,10.8,0,.73.73,0,0,1,1.15,0,6.59,6.59,0,0,0,10.8,0,.7.7,0,0,1,.57-.3h0a.7.7,0,0,1,.57.3,6.51,6.51,0,0,0,5.4,2.81h0a6.52,6.52,0,0,0,5.4-2.81.7.7,0,0,1,.57-.3h0a.7.7,0,0,1,.57.3.71.71,0,0,1-.07.91A7.86,7.86,0,0,1,44.89,63.09Z"/><path class="cls-1" d="M56.85,63.09a7.9,7.9,0,0,1-6.55-3.41.7.7,0,1,1,1.15-.8,6.59,6.59,0,0,0,10.8,0,.7.7,0,1,1,1.15.8A7.9,7.9,0,0,1,56.85,63.09Z"/><path class="cls-1" d="M24.9,61.45a.7.7,0,0,1-.7-.7v-9a.7.7,0,1,1,1.4,0v9A.7.7,0,0,1,24.9,61.45Z"/><path class="cls-1" d="M29.07,58.29a.7.7,0,0,1-.7-.7V51.76a.7.7,0,1,1,1.4,0v5.82A.7.7,0,0,1,29.07,58.29Z"/><path class="cls-1" d="M36.83,61.45a.7.7,0,0,1-.7-.7v-9a.7.7,0,1,1,1.4,0v9A.7.7,0,0,1,36.83,61.45Z"/><path class="cls-1" d="M41,58.29a.7.7,0,0,1-.7-.7V51.76a.7.7,0,1,1,1.4,0v5.82A.7.7,0,0,1,41,58.29Z"/><path class="cls-1" d="M48.76,61.45a.7.7,0,0,1-.7-.7v-9a.7.7,0,1,1,1.4,0v9A.7.7,0,0,1,48.76,61.45Z"/><path class="cls-1" d="M52.93,58.29a.7.7,0,0,1-.7-.7V51.76a.7.7,0,1,1,1.4,0v5.82A.7.7,0,0,1,52.93,58.29Z"/><path class="cls-1" d="M56,51.87H21.79a.7.7,0,0,1-.7-.7V46.23a.7.7,0,0,1,.7-.7H56a.7.7,0,0,1,.7.7v4.93A.7.7,0,0,1,56,51.87Zm-33.55-1.4H55.34V46.94H22.49Z"/><path class="cls-1" d="M56,46.94H21.79a.7.7,0,0,1-.7-.7V41.3a.7.7,0,0,1,.7-.7H56a.7.7,0,0,1,.7.7v4.93A.7.7,0,0,1,56,46.94Zm-33.55-1.4H55.34V42H22.49Z"/><path class="cls-1" d="M43.17,38.49h-8.5a.7.7,0,0,1-.7-.74L35,18.67a.7.7,0,0,1,.31-.55L38.53,16a.7.7,0,0,1,.77,0l3.19,2.09a.7.7,0,0,1,.31.55l1,18.92a.71.71,0,0,1,0,.21A.7.7,0,0,1,43.17,38.49Zm-7.76-1.4h7l-1-18-2.51-1.64L36.41,19.1Z"/><path class="cls-1" d="M40,31.06H35.36a.7.7,0,1,1,0-1.4H40a.7.7,0,0,1,0,1.4Z"/><path class="cls-1" d="M40,22.74H35.73a.7.7,0,1,1,0-1.4H40a.7.7,0,0,1,0,1.4Z"/><path class="cls-1" d="M42.79,35.23h-5a.7.7,0,1,1,0-1.4h5a.7.7,0,0,1,0,1.4Z"/><path class="cls-1" d="M42.1,26.9H37.78a.7.7,0,1,1,0-1.4H42.1a.7.7,0,1,1,0,1.4Z"/><path class="cls-1" d="M45.88,41.87H32a.7.7,0,0,1-.7-.7v-.66a3.42,3.42,0,0,1,3.42-3.42h8.49a3.43,3.43,0,0,1,3.42,3.42v.66A.7.7,0,0,1,45.88,41.87Zm-13.23-1.4H45.18a2,2,0,0,0-2-2H34.67A2,2,0,0,0,32.65,40.47Z"/><path class="cls-1" d="M56,42a.7.7,0,0,1-.53-1.16l7.8-8.83V30.78H62L49.71,41.58a.7.7,0,1,1-.93-1l12.44-11a.71.71,0,0,1,.46-.17H64a.7.7,0,0,1,.7.7v2.24a.7.7,0,0,1-.18.46l-8,9A.7.7,0,0,1,56,42Z"/><path class="cls-1" d="M53.2,41.87a.7.7,0,0,1-.7-.7V37.55a.71.71,0,0,1,.76-.64.7.7,0,0,1,.63.76v3.5A.7.7,0,0,1,53.2,41.87Z"/><path class="cls-1" d="M58.94,38.7a.7.7,0,0,1-.7-.7V32.64a.74.74,0,0,1,.67-.75.66.66,0,0,1,.72.6V38A.7.7,0,0,1,58.94,38.7Z"/><path class="cls-1" d="M53.2,38.43h-.13a.7.7,0,1,1,0-1.4h6.12a.7.7,0,0,1,0,1.4Z"/><path class="cls-1" d="M63.67,33.34H58.84a.7.7,0,0,1,0-1.4h4.83a.7.7,0,0,1,0,1.4Z"/><path class="cls-1" d="M27,51.87a.7.7,0,0,1-.7-.7V48.7a.7.7,0,1,1,1.4,0v2.46A.7.7,0,0,1,27,51.87Z"/><path class="cls-1" d="M38.92,51.87a.7.7,0,0,1-.7-.7V48.7a.7.7,0,1,1,1.4,0v2.46A.7.7,0,0,1,38.92,51.87Z"/><path class="cls-1" d="M50.85,51.87a.7.7,0,0,1-.7-.7V48.7a.7.7,0,1,1,1.4,0v2.46A.7.7,0,0,1,50.85,51.87Z"/><path class="cls-1" d="M27,44.65a.7.7,0,0,1-.7-.7V41.48a.7.7,0,1,1,1.4,0V44A.7.7,0,0,1,27,44.65Z"/><path class="cls-1" d="M38.92,44.65a.7.7,0,0,1-.7-.7V41.48a.7.7,0,1,1,1.4,0V44A.7.7,0,0,1,38.92,44.65Z"/><path class="cls-1" d="M50.85,44.65a.7.7,0,0,1-.7-.7V41.48a.7.7,0,1,1,1.4,0V44A.7.7,0,0,1,50.85,44.65Z"/><path class="cls-1" d="M32.95,48.17a.7.7,0,0,1-.7-.7V45a.7.7,0,1,1,1.4,0v2.47A.7.7,0,0,1,32.95,48.17Z"/><path class="cls-1" d="M44.88,48.17a.7.7,0,0,1-.7-.7V45a.7.7,0,1,1,1.4,0v2.47A.7.7,0,0,1,44.88,48.17Z"/><path class="cls-2" d="M39.51.75A38.76,38.76,0,1,0,78.27,39.51,38.8,38.8,0,0,0,39.51.75Z"/></g></g></svg>