<svg xmlns="http://www.w3.org/2000/svg" viewBox="0 0 77.52 77.51"><defs><style>.cls-1{fill:#fff;}.cls-2{fill:none;stroke:#3e4651;stroke-miterlimit:10;stroke-width:1.5px;}.cls-3{fill:#3e4651;}</style></defs><title>Asset 10</title><g id="Layer_2" data-name="Layer 2"><g id="Layer_1-2" data-name="Layer 1"><path class="cls-1" d="M38.76,0A38.76,38.76,0,1,0,77.52,38.76,38.8,38.8,0,0,0,38.76,0Z"/><path class="cls-2" d="M32.12,22.41a4.06,4.06,0,1,0,5.74-5.74,4.16,4.16,0,0,0-5.74,0A4.06,4.06,0,0,0,32.12,22.41Z"/><path class="cls-3" d="M34.07,20.48a1.3,1.3,0,0,0,1.84,0,1.31,1.31,0,0,0,0-1.84,1.34,1.34,0,0,0-1.84,0A1.3,1.3,0,0,0,34.07,20.48Z"/><path class="cls-3" d="M41.07,37.48a1.3,1.3,0,0,0,1.84,0,1.31,1.31,0,0,0,0-1.84,1.34,1.34,0,0,0-1.84,0A1.3,1.3,0,0,0,41.07,37.48Z"/><path class="cls-3" d="M26.74,48.92a1.3,1.3,0,0,0,1.85-1.84,1.34,1.34,0,0,0-1.85,0A1.3,1.3,0,0,0,26.74,48.92Z"/><path class="cls-2" d="M38.42,17.38h0a4.06,4.06,0,0,1,0,4.31v.44h9V17.38Z"/><path class="cls-2" d="M47.45,15.52H55.7L57.82,19v3.63s-2.75,2.5-5.37,2.5-5-3-5-3Z"/><path class="cls-2" d="M43.9,33.3l2.32,2.32L54.56,24.7a5.79,5.79,0,0,1-2.11.46,6.19,6.19,0,0,1-3.81-1.79l-6.78,8.88A3.78,3.78,0,0,1,43.9,33.3Z"/><path class="cls-2" d="M56.2,49.3H37.87V45.88a3,3,0,0,1,3-3H51.62a4.63,4.63,0,0,1,4.58,4.5Z"/><path class="cls-2" d="M37.87,49.3H56.2v1.92c0,1.66-2.13,3.58-3.79,3.58H41.82c-1.66,0-4-1.93-4-3.58Z"/><path class="cls-2" d="M42.7,42.88h8.92a4.45,4.45,0,0,1,2.46.75,3.81,3.81,0,0,0-.54-.71L43.9,33.3a3.81,3.81,0,0,0-5.39,5.4Z"/><line class="cls-2" x1="43.76" y1="46.38" x2="43.76" y2="49.3"/><line class="cls-2" x1="46.76" y1="46.38" x2="46.76" y2="49.3"/><line class="cls-2" x1="49.76" y1="46.38" x2="49.76" y2="49.3"/><path class="cls-2" d="M34.52,23.55a4,4,0,0,1-2.4-1.14,3.93,3.93,0,0,1-.41-.51,2.89,2.89,0,0,0-.85.11c-1.63.5-1.9,2.17-2,3.88a1.74,1.74,0,0,0,.08.65,4,4,0,0,0-1,2.32,1.22,1.22,0,0,0,1.92,1.24,4,4,0,0,0,1.7-1.83,2.81,2.81,0,0,0,1.15-.33c1.51-.8,2.55-2.24,2-3.88A2.82,2.82,0,0,0,34.52,23.55Z"/><path class="cls-2" d="M31.47,37.48v2.37H23.94V37.48H20.66v3.24a2.92,2.92,0,0,0,2.92,2.92h8.27a2.92,2.92,0,0,0,2.92-2.92V37.48Z"/><polygon class="cls-2" points="35.17 55.05 20.25 55.05 24.25 43.63 31.17 43.63 35.17 55.05"/><path class="cls-2" d="M57.59,61.05H15.76c-1.67-3.12,1.34-6.25,3-6.25H53.59C55.25,54.8,59,57.93,57.59,61.05Z"/></g></g></svg>