<svg xmlns="http://www.w3.org/2000/svg" viewBox="0 0 79.02 79.01"><defs><style>.cls-1{fill:none;stroke:#3e4651;stroke-miterlimit:10;stroke-width:1.5px;}.cls-2{fill:#3e4651;}</style></defs><title>Asset 2</title><g id="Layer_2" data-name="Layer 2"><g id="Layer_1-2" data-name="Layer 1"><path class="cls-1" d="M39.51.75A38.76,38.76,0,1,0,78.27,39.51,38.8,38.8,0,0,0,39.51.75Z"/><path class="cls-2" d="M56.9,61.62a5.37,5.37,0,0,1-4.08-1.85.7.7,0,1,1,1.06-.91,4,4,0,0,0,3,1.36A4.07,4.07,0,0,0,61,56.15V25.82H52.83V38a.7.7,0,1,1-1.4,0V25.12a.7.7,0,0,1,.7-.7h9.45a.79.79,0,0,1,.79.7v31A5.48,5.48,0,0,1,56.9,61.62Z"/><path class="cls-2" d="M61.86,25.82H58a.7.7,0,0,1,0-1.4h3.85a.61.61,0,0,0,0-1.22H51.94a.61.61,0,1,0,0,1.22h1a.7.7,0,1,1,0,1.4h-1a2,2,0,1,1,0-4h9.93a2,2,0,1,1,0,4Z"/><path class="cls-2" d="M26.13,61.62a5.48,5.48,0,0,1-5.47-5.47v-31a.7.7,0,0,1,.7-.7h9.45a.79.79,0,0,1,.79.7V37.76a.7.7,0,1,1-1.4,0V25.82H22.06V56.15a4.06,4.06,0,0,0,7,2.77.7.7,0,1,1,1,1A5.49,5.49,0,0,1,26.13,61.62Z"/><path class="cls-2" d="M31.1,25.82H27.25a.7.7,0,1,1,0-1.4H31.1a.61.61,0,0,0,0-1.22H21.17a.61.61,0,0,0,0,1.22h1a.7.7,0,1,1,0,1.4h-1a2,2,0,0,1,0-4H31.1a2,2,0,0,1,0,4Z"/><path class="cls-2" d="M46.39,62.88H36.79a11,11,0,0,1-6.49-2,10.55,10.55,0,0,1-2.52-14.66l4.89-7a14,14,0,0,0,2.52-8V19.29a.7.7,0,0,1,.7-.7h.8a.7.7,0,1,1,0,1.4h-.1V31.18A15.43,15.43,0,0,1,33.82,40l-4.89,7a9.16,9.16,0,0,0,2.19,12.72,9.56,9.56,0,0,0,5.67,1.72h9.59A9.2,9.2,0,0,0,53.94,47l-4.88-7a15.36,15.36,0,0,1-2.78-8.84V20H42.76a.7.7,0,1,1,0-1.4H47a.7.7,0,0,1,.7.7V31.18a14,14,0,0,0,2.53,8l4.88,7a10.6,10.6,0,0,1-8.7,16.65Z"/><path class="cls-2" d="M49.4,47.11a3.24,3.24,0,0,1-2.49-1.22,1.9,1.9,0,0,0-1.48-.8,1.93,1.93,0,0,0-1.51.81,3.13,3.13,0,0,1-5,0,1.8,1.8,0,0,0-3,0,3.15,3.15,0,0,1-5,0,2.1,2.1,0,0,0-1.2-.78A.7.7,0,1,1,30,43.73a3.39,3.39,0,0,1,2,1.18,1.79,1.79,0,0,0,3,0,3.16,3.16,0,0,1,5,0,1.77,1.77,0,0,0,3,0,3.15,3.15,0,0,1,5,0,1.79,1.79,0,0,0,3,0,3.44,3.44,0,0,1,2-1.18.7.7,0,1,1,.22,1.38,2.14,2.14,0,0,0-1.2.78A3.25,3.25,0,0,1,49.4,47.11Z"/><path class="cls-2" d="M33.66,55.92a2.63,2.63,0,1,1,2.63-2.63A2.63,2.63,0,0,1,33.66,55.92Zm0-3.86a1.23,1.23,0,1,0,1.23,1.23A1.23,1.23,0,0,0,33.66,52.06Z"/><path class="cls-2" d="M50.08,54.18a2.63,2.63,0,1,1,2.63-2.63A2.64,2.64,0,0,1,50.08,54.18Zm0-3.86a1.23,1.23,0,1,0,1.23,1.23A1.23,1.23,0,0,0,50.08,50.32Z"/><path class="cls-2" d="M41.57,59.85a2.2,2.2,0,1,1,2.2-2.2A2.21,2.21,0,0,1,41.57,59.85Zm0-3a.8.8,0,1,0,.8.8A.8.8,0,0,0,41.57,56.85Z"/><path class="cls-2" d="M47.33,20H42.76a.7.7,0,1,1,0-1.4h4.57a.86.86,0,1,0,0-1.71H35.55a.86.86,0,0,0,0,1.71h1.14a.7.7,0,1,1,0,1.4H35.55a2.26,2.26,0,0,1,0-4.51H47.33a2.26,2.26,0,0,1,0,4.51Z"/></g></g></svg>