<svg xmlns="http://www.w3.org/2000/svg" viewBox="0 0 77.52 77.51"><defs><style>.cls-1{fill:#fff;}.cls-2{fill:none;stroke:#3e4651;stroke-linecap:round;stroke-linejoin:round;stroke-width:1.5px;}</style></defs><title>Asset 12</title><g id="Layer_2" data-name="Layer 2"><g id="Layer_1-2" data-name="Layer 1"><path class="cls-1" d="M38.76,0A38.76,38.76,0,1,0,77.52,38.76,38.8,38.8,0,0,0,38.76,0Z"/><path class="cls-2" d="M18.07,36.31H59.45a.82.82,0,0,1,.82.82v24.4a.83.83,0,0,1-.83.83H18.07a.82.82,0,0,1-.82-.82V37.13A.82.82,0,0,1,18.07,36.31Z"/><line class="cls-2" x1="21.77" y1="39.91" x2="21.77" y2="58.76"/><line class="cls-2" x1="27.43" y1="39.91" x2="27.43" y2="58.76"/><line class="cls-2" x1="33.09" y1="39.91" x2="33.09" y2="58.76"/><line class="cls-2" x1="38.76" y1="39.91" x2="38.76" y2="58.76"/><line class="cls-2" x1="44.42" y1="39.91" x2="44.42" y2="58.76"/><line class="cls-2" x1="50.08" y1="39.91" x2="50.08" y2="58.76"/><line class="cls-2" x1="55.75" y1="39.91" x2="55.75" y2="58.76"/><polyline class="cls-2" points="18.07 36.31 38.76 30.4 59.45 36.31"/><path class="cls-2" d="M36,28.53a3.16,3.16,0,1,0,2.73-4.74V20.57"/><polygon class="cls-2" points="33.09 14.02 44.42 14.02 41.91 20.57 36.03 20.57 33.09 14.02"/></g></g></svg>