<svg xmlns="http://www.w3.org/2000/svg" viewBox="0 0 79.02 79.01"><defs><style>.cls-1{fill:none;stroke:#3e4651;stroke-miterlimit:10;stroke-width:1.5px;}.cls-2{fill:#3e4651;}</style></defs><title>Asset 6</title><g id="Layer_2" data-name="Layer 2"><g id="Layer_1-2" data-name="Layer 1"><path class="cls-1" d="M39.51.75A38.76,38.76,0,1,0,78.27,39.51,38.8,38.8,0,0,0,39.51.75Z"/><path class="cls-2" d="M52.13,30.13a.7.7,0,0,1-.7-.7,6.42,6.42,0,0,0-.14-1.2,9.85,9.85,0,0,0-3-5.33,10.36,10.36,0,0,0-1.07-.83L44.12,20l-.17-.11a1.9,1.9,0,0,0-2.46.61l-3.67,5.42a.7.7,0,0,1-1.16-.79l3.67-5.42a3.3,3.3,0,0,1,4.27-1.06l.31.19L48,20.91a11.93,11.93,0,0,1,1.22.95A11.25,11.25,0,0,1,52.67,28a7.8,7.8,0,0,1,.16,1.47A.7.7,0,0,1,52.13,30.13Z"/><path class="cls-2" d="M46.37,38.65a.7.7,0,0,1-.56-.28A6.08,6.08,0,0,1,45,32.63a5.86,5.86,0,0,1,.69-1.37,6.14,6.14,0,0,1,3.91-2.59A.7.7,0,1,1,49.84,30a4.75,4.75,0,0,0-3,2,4.57,4.57,0,0,0-.53,1.06,4.69,4.69,0,0,0,.65,4.43.7.7,0,0,1-.56,1.12Z"/><path class="cls-2" d="M48.72,23.08A.7.7,0,0,1,48.14,22l3.2-4.72a2,2,0,0,0-.54-2.78A2,2,0,0,0,48,15l-3.15,4.65a.7.7,0,0,1-1.16-.79l3.15-4.65a3.41,3.41,0,0,1,5.65,3.82l-3.2,4.72A.7.7,0,0,1,48.72,23.08Z"/><path class="cls-2" d="M36.07,42.48a.7.7,0,0,1-.39-.12l-5.16-3.49a.7.7,0,0,1-.19-1l2.81-4.15a.7.7,0,0,1,1.16.79L31.89,38.1l4,2.71,2.46-3.64a.7.7,0,1,1,1.16.78l-2.86,4.22a.7.7,0,0,1-.45.29Z"/><path class="cls-2" d="M50.78,40.86H50.4a6,6,0,0,1-3.09-1,5.9,5.9,0,0,1-1.5-1.45.7.7,0,1,1,1.14-.81,4.5,4.5,0,0,0,1.15,1.1,4.6,4.6,0,0,0,2.38.8,4.75,4.75,0,0,0,3-8.68A4.53,4.53,0,0,0,52,30.11,4.69,4.69,0,0,0,49.84,30a4.75,4.75,0,0,0-3,2,4.57,4.57,0,0,0-.53,1.06A.7.7,0,1,1,45,32.64a5.88,5.88,0,0,1,.69-1.38,6.14,6.14,0,0,1,3.91-2.59,6,6,0,0,1,2.75.09,5.91,5.91,0,0,1,1.9.86,6.15,6.15,0,0,1-3.43,11.25Z"/><path class="cls-2" d="M50.75,38a3.31,3.31,0,0,1-1.86-.57l-.11-.08-.1-.09a1.84,1.84,0,0,1-.31-.29,3.16,3.16,0,0,1-.84-1.53A3.31,3.31,0,0,1,48,32.85a3.38,3.38,0,0,1,4.07-1.19,3.56,3.56,0,0,1,.56.3A3.33,3.33,0,0,1,50.75,38Zm-1.1-1.75h0a2,2,0,0,0,2.68-.52,1.92,1.92,0,0,0-.52-2.68,2,2,0,0,0-.33-.18,2,2,0,0,0-2.35.69,1.91,1.91,0,0,0-.28,1.53,1.82,1.82,0,0,0,.5.91.84.84,0,0,0,.18.16Z"/><path class="cls-2" d="M39.23,62.91a6.16,6.16,0,1,1,5.11-2.71A6.13,6.13,0,0,1,39.23,62.91Zm0-10.92a4.76,4.76,0,1,0,2.66.82A4.76,4.76,0,0,0,39.24,52Z"/><path class="cls-2" d="M39.24,60.08A3.33,3.33,0,1,1,42,58.62,3.31,3.31,0,0,1,39.24,60.08Zm0-5.26a1.93,1.93,0,0,0-1.9,2.3,1.92,1.92,0,0,0,.81,1.23,2,2,0,0,0,2.68-.52,1.93,1.93,0,0,0-1.6-3Z"/><path class="cls-2" d="M43.2,39.17a11,11,0,0,1-2.33-.25,11.25,11.25,0,0,1-2.23-.73,10.6,10.6,0,0,1-1.73-1l-3.06-2.07a3.62,3.62,0,0,1-.64-.56,3.33,3.33,0,0,1-.8-2.49A3.27,3.27,0,0,1,33,30.59l3.7-5.46a.7.7,0,1,1,1.16.79l-3.7,5.46a1.87,1.87,0,0,0-.32.88,1.91,1.91,0,0,0,.45,1.42,2.22,2.22,0,0,0,.38.33l3.05,2.07a9.4,9.4,0,0,0,1.52.84,10,10,0,0,0,2,.64,9.8,9.8,0,0,0,3.77.06l.35-.07A6.06,6.06,0,0,1,45,32.63a5.86,5.86,0,0,1,.69-1.37,6.14,6.14,0,0,1,3.91-2.59A.7.7,0,1,1,49.84,30a4.75,4.75,0,0,0-3,2,4.57,4.57,0,0,0-.53,1.06,4.69,4.69,0,0,0,.65,4.43.7.7,0,0,1-.32,1.07,8,8,0,0,1-1.43.39A11.48,11.48,0,0,1,43.2,39.17Z"/><path class="cls-2" d="M44.25,59.59A.7.7,0,0,1,44,58.23,16.47,16.47,0,0,0,54.6,38a.7.7,0,1,1,1.34-.39,17.87,17.87,0,0,1-11.47,22A.68.68,0,0,1,44.25,59.59Z"/><path class="cls-2" d="M23.88,51.78a.69.69,0,0,1-.38-.12h0a.69.69,0,1,1,.39.12Z"/><path class="cls-2" d="M43.62,54.19a.7.7,0,0,1-.28-1.34A11.2,11.2,0,0,0,49.76,40.3.7.7,0,0,1,51.13,40,12.6,12.6,0,0,1,43.9,54.13.71.71,0,0,1,43.62,54.19Z"/><path class="cls-2" d="M34.5,54.76a.69.69,0,0,1-.39-.12L23.94,47.74a3.65,3.65,0,0,1,4.09-6L42.7,51.65a.7.7,0,0,1-.79,1.16L27.24,42.87a2.25,2.25,0,0,0-2.52,3.72l10.17,6.89a.7.7,0,0,1-.39,1.28Z"/><path class="cls-2" d="M26.2,57a2.35,2.35,0,0,1-1.32-.41l-3-2a2.36,2.36,0,0,1-.63-3.27,2.41,2.41,0,0,1,3.27-.63l4.39,3a.7.7,0,0,1,.19,1l-.93,1.37A2.35,2.35,0,0,1,26.2,57Zm-3-5.35a1,1,0,0,0-.54,1.74l3,2A1,1,0,0,0,27,55.16l.53-.79-3.81-2.58A.94.94,0,0,0,23.19,51.63Z"/><path class="cls-2" d="M33.89,58.53a.7.7,0,0,1-.39-.12l-5.39-3.65a.7.7,0,0,1,.79-1.16l5.39,3.65a.7.7,0,0,1-.39,1.28Z"/><path class="cls-2" d="M54.35,66.27H27a.7.7,0,0,1-.7-.7,7,7,0,0,1,7-7h1.13a.7.7,0,1,1,0,1.4H33.28a5.59,5.59,0,0,0-5.54,4.88H54.35a2.44,2.44,0,0,0,0-4.88H44.06a.7.7,0,1,1,0-1.4H54.35a3.84,3.84,0,0,1,0,7.68Z"/></g></g></svg>