<svg xmlns="http://www.w3.org/2000/svg" viewBox="0 0 77.52 77.51"><defs><style>.cls-1{fill:#fff;}.cls-2{fill:none;stroke:#3e4651;stroke-linecap:round;stroke-linejoin:round;stroke-width:1.5px;}</style></defs><title>Asset 9</title><g id="Layer_2" data-name="Layer 2"><g id="Layer_1-2" data-name="Layer 1"><path class="cls-1" d="M38.76,0A38.76,38.76,0,1,0,77.52,38.76,38.8,38.8,0,0,0,38.76,0Z"/><path class="cls-2" d="M61.09,25.06a1.34,1.34,0,0,1,.19,1.86L26.92,61.28a1.34,1.34,0,0,1-1.86-.18l-8.64-8.64a1.34,1.34,0,0,1-.18-1.86L50.59,16.24a1.34,1.34,0,0,1,1.86.18Z"/><line class="cls-2" x1="27.44" y1="39.39" x2="32.17" y2="44.11"/><line class="cls-2" x1="39.36" y1="27.47" x2="44.09" y2="32.19"/><line class="cls-2" x1="29.8" y1="37.02" x2="32.4" y2="39.62"/><line class="cls-2" x1="32.91" y1="33.91" x2="35.51" y2="36.51"/><line class="cls-2" x1="36.02" y1="30.81" x2="38.62" y2="33.4"/><line class="cls-2" x1="42.38" y1="24.85" x2="44.97" y2="27.45"/><line class="cls-2" x1="45.48" y1="21.74" x2="48.08" y2="24.34"/><line class="cls-2" x1="48.59" y1="18.63" x2="51.19" y2="21.23"/><line class="cls-2" x1="18.62" y1="48.62" x2="21.22" y2="51.22"/><line class="cls-2" x1="21.73" y1="45.51" x2="24.33" y2="48.11"/><line class="cls-2" x1="24.84" y1="42.4" x2="27.44" y2="45"/></g></g></svg>