<svg xmlns="http://www.w3.org/2000/svg" viewBox="0 0 77.52 77.51"><defs><style>.cls-1{fill:#fff;}.cls-2,.cls-3{fill:none;stroke:#3e4651;stroke-width:1.5px;}.cls-2{stroke-miterlimit:10;}.cls-3{stroke-linecap:round;stroke-linejoin:round;}</style></defs><title>Asset 11</title><g id="Layer_2" data-name="Layer 2"><g id="Layer_1-2" data-name="Layer 1"><path class="cls-1" d="M38.76,0A38.76,38.76,0,1,0,77.52,38.76,38.8,38.8,0,0,0,38.76,0Z"/><path class="cls-2" d="M25.64,45.86l.86-2.07,3.7.68,3.29-3.29-.68-3.7,2.07-.86L37,39.71h4.65l2.14-3.09,2.07.85-.68,3.7,3.29,3.29,3.7-.68L53,45.84,49.95,48v4.65L53,54.77l-.85,2.07-3.7-.67L45.2,59.46l.68,3.7L43.81,64l-2.14-3.09H37L34.88,64l-2.07-.85.67-3.7L30.2,56.17l-3.7.68-.86-2.07,3.09-2.14V48Z"/><path class="cls-2" d="M35.39,50.32a4,4,0,1,1,4,3.95A3.94,3.94,0,0,1,35.39,50.32Z"/><path class="cls-2" d="M13.86,32.2a3,3,0,0,0-4.21,0,3,3,0,0,0,2.1,5.08,3,3,0,0,0,2.1-.87A3,3,0,0,0,13.86,32.2Z"/><path class="cls-2" d="M18.48,23.17a3,3,0,0,0-4.21,0,3,3,0,1,0,4.21,0Z"/><polyline class="cls-3" points="14.73 34.22 19.15 34.22 19.15 47.01 24.07 50.31"/><polyline class="cls-3" points="19.4 25.29 28.53 25.29 28.53 40.4"/><line class="cls-3" x1="33.76" y1="21.49" x2="33.76" y2="32.84"/><path class="cls-2" d="M35.86,16.34a3,3,0,0,0-4.21,0,3,3,0,0,0,2.1,5.08,3,3,0,0,0,2.1-.87A3,3,0,0,0,35.86,16.34Z"/><path class="cls-2" d="M63.65,36.48a3,3,0,1,0,4.21-4.21,3,3,0,0,0-4.21,0A3,3,0,0,0,63.65,36.48Z"/><path class="cls-2" d="M59,27.44a3,3,0,0,0,4.21,0,3,3,0,0,0,0-4.21,3,3,0,0,0-4.21,0A3,3,0,0,0,59,27.44Z"/><polyline class="cls-3" points="62.78 34.3 58.36 34.3 58.36 47.08 53.44 50.39"/><polyline class="cls-3" points="58.12 25.36 48.99 25.36 48.99 40.47"/><line class="cls-3" x1="43.76" y1="21.56" x2="43.76" y2="32.91"/><path class="cls-2" d="M41.66,20.62a3,3,0,0,0,4.21,0,3,3,0,0,0,0-4.21,3,3,0,0,0-4.21,0A3,3,0,0,0,41.66,20.62Z"/></g></g></svg>