<svg xmlns="http://www.w3.org/2000/svg" viewBox="0 0 79.02 79.01"><defs><style>.cls-1,.cls-3{fill:none;stroke:#3e4651;stroke-width:1.5px;}.cls-1{stroke-miterlimit:10;}.cls-2{fill:#3e4651;}.cls-3{stroke-linecap:round;stroke-linejoin:round;}</style></defs><title>Asset 4</title><g id="Layer_2" data-name="Layer 2"><g id="Layer_1-2" data-name="Layer 1"><path class="cls-1" d="M39.51.75A38.76,38.76,0,1,0,78.27,39.51,38.8,38.8,0,0,0,39.51.75Z"/><path class="cls-2" d="M36.87,27.5a2.63,2.63,0,0,1,1.63-2.44,2.6,2.6,0,0,1,1-.2,2.64,2.64,0,0,1,1,5.07,2.59,2.59,0,0,1-1,.2A2.64,2.64,0,0,1,36.87,27.5Z"/><path class="cls-3" d="M45.66,31.65a7.39,7.39,0,0,0-.2-8.55"/><path class="cls-3" d="M33.55,23.09a7.38,7.38,0,0,0-.2,8.55"/><path class="cls-3" d="M49.93,34.58a12.55,12.55,0,0,0-.21-14.41"/><path class="cls-3" d="M29.27,20.15a12.58,12.58,0,0,0-.19,14.42"/><path class="cls-3" d="M25.11,17.29a17.63,17.63,0,0,0-.18,20.14"/><path class="cls-3" d="M54.1,37.44a17.59,17.59,0,0,0-.21-20.13"/><path class="cls-3" d="M48.72,61.72l-7.85-32a2.48,2.48,0,0,1-.36.18,2.6,2.6,0,0,1-2.38-.19l-7.85,32"/><line class="cls-3" x1="48.72" y1="61.72" x2="32.99" y2="53.76"/><line class="cls-3" x1="32.99" y1="53.76" x2="44.6" y2="47.14"/><line class="cls-3" x1="44.6" y1="47.14" x2="35.5" y2="42.06"/><line class="cls-3" x1="35.5" y1="42.06" x2="42.64" y2="37.98"/><line class="cls-3" x1="42.64" y1="37.98" x2="37.45" y2="33.58"/><line class="cls-3" x1="30.29" y1="61.72" x2="46.02" y2="53.76"/><line class="cls-3" x1="46.02" y1="53.76" x2="34.41" y2="47.14"/><line class="cls-3" x1="34.41" y1="47.14" x2="43.52" y2="42.06"/><line class="cls-3" x1="43.52" y1="42.06" x2="36.37" y2="37.98"/><line class="cls-3" x1="36.37" y1="37.98" x2="41.57" y2="33.58"/></g></g></svg>