<svg xmlns="http://www.w3.org/2000/svg" viewBox="0 0 79.02 79.01"><defs><style>.cls-1,.cls-2{fill:none;stroke:#3e4651;stroke-width:1.5px;}.cls-1{stroke-miterlimit:10;}.cls-2{stroke-linecap:round;stroke-linejoin:round;}</style></defs><title>Asset 3</title><g id="Layer_2" data-name="Layer 2"><g id="Layer_1-2" data-name="Layer 1"><path class="cls-1" d="M39.51.75A38.76,38.76,0,1,0,78.27,39.51,38.8,38.8,0,0,0,39.51.75Z"/><path class="cls-1" d="M31,39.76a8.53,8.53,0,1,1,8.54,8.51A8.5,8.5,0,0,1,31,39.76Z"/><path class="cls-1" d="M14.56,39.75a3.07,3.07,0,1,1,4.24,2.83,3,3,0,0,1-1.17.23A3.07,3.07,0,0,1,14.56,39.75Z"/><path class="cls-1" d="M50.86,54.11a3.07,3.07,0,1,1,4.24,2.83,3,3,0,0,1-1.17.23A3.07,3.07,0,0,1,50.86,54.11Z"/><path class="cls-1" d="M52,23.83A3.06,3.06,0,0,1,53.9,21a3,3,0,0,1,1.17-.23,3.07,3.07,0,0,1,1.18,5.9,3,3,0,0,1-1.17.23A3.07,3.07,0,0,1,52,23.83Z"/><path class="cls-1" d="M36.44,61.48a3.06,3.06,0,0,1,1.89-2.84,3,3,0,0,1,1.17-.23,3.07,3.07,0,0,1,1.18,5.9,3,3,0,0,1-1.17.23A3.07,3.07,0,0,1,36.44,61.48Z"/><path class="cls-1" d="M36.44,17.55a3.06,3.06,0,0,1,1.89-2.84,3,3,0,0,1,1.17-.23,3.07,3.07,0,0,1,1.18,5.9,3,3,0,0,1-1.17.23A3.07,3.07,0,0,1,36.44,17.55Z"/><path class="cls-1" d="M19.7,54.73a4.27,4.27,0,1,1,5.91,3.94A4.19,4.19,0,0,1,24,59,4.27,4.27,0,0,1,19.7,54.73Z"/><path class="cls-1" d="M22.27,54.72a1.7,1.7,0,1,1,2.35,1.56,1.65,1.65,0,0,1-.65.13A1.7,1.7,0,0,1,22.27,54.72Z"/><path class="cls-1" d="M57.92,39.75a4.27,4.27,0,1,1,5.91,3.94A4.19,4.19,0,0,1,62.2,44,4.27,4.27,0,0,1,57.92,39.75Z"/><path class="cls-1" d="M60.49,39.75a1.7,1.7,0,1,1,2.35,1.56,1.64,1.64,0,0,1-.65.13A1.7,1.7,0,0,1,60.49,39.75Z"/><path class="cls-1" d="M19.34,22.92A4.26,4.26,0,0,1,22,19a4.21,4.21,0,0,1,1.63-.32,4.27,4.27,0,0,1,1.64,8.21,4.18,4.18,0,0,1-1.63.33A4.27,4.27,0,0,1,19.34,22.92Z"/><path class="cls-1" d="M21.91,22.91a1.7,1.7,0,1,1,2.35,1.56,1.64,1.64,0,0,1-.65.13A1.7,1.7,0,0,1,21.91,22.91Z"/><line class="cls-2" x1="28.49" y1="39.74" x2="20.69" y2="39.74"/><line class="cls-2" x1="57.92" y1="39.74" x2="50.59" y2="39.74"/><line class="cls-2" x1="39.3" y1="28.93" x2="39.3" y2="21.13"/><line class="cls-2" x1="39.3" y1="58.36" x2="39.3" y2="51.03"/><line class="cls-2" x1="27" y1="51.71" x2="30.97" y2="47.74"/><line class="cls-2" x1="48.03" y1="47.74" x2="52.01" y2="51.71"/><line class="cls-2" x1="26.56" y1="26.27" x2="30.54" y2="30.24"/><line class="cls-2" x1="48.6" y1="30.24" x2="52.57" y2="26.27"/><rect class="cls-1" x="34.93" y="36.4" width="9.17" height="6.69" rx="1.5" ry="1.5"/><polyline class="cls-2" points="34.93 37.9 39.3 40.2 43.94 37.9"/></g></g></svg>