<svg xmlns="http://www.w3.org/2000/svg" viewBox="0 0 79.02 79.01"><defs><style>.cls-1,.cls-2{fill:none;stroke:#3e4651;stroke-width:1.5px;}.cls-1{stroke-miterlimit:10;}.cls-2{stroke-linecap:round;stroke-linejoin:round;}</style></defs><title>Asset 7</title><g id="Layer_2" data-name="Layer 2"><g id="Layer_1-2" data-name="Layer 1"><path class="cls-1" d="M39.51.75A38.76,38.76,0,1,0,78.27,39.51,38.8,38.8,0,0,0,39.51.75Z"/><rect class="cls-2" x="16.25" y="20.42" width="25.6" height="38.17" rx="1.55" ry="1.55"/><line class="cls-2" x1="21.15" y1="20.42" x2="21.15" y2="58.59"/><line class="cls-2" x1="25.28" y1="26.35" x2="25.28" y2="53.95"/><ellipse class="cls-2" cx="52.31" cy="31.29" rx="10.46" ry="3.91"/><path class="cls-2" d="M62.76,37.62c0,2.16-4.68,3.91-10.46,3.91s-10.46-1.75-10.46-3.91"/><path class="cls-2" d="M62.76,44.71c0,2.16-4.68,3.91-10.46,3.91s-10.46-1.75-10.46-3.91"/><path class="cls-2" d="M52.31,27.38c-5.78,0-10.46,1.75-10.46,3.91V50.9c0,2.16,4.68,3.91,10.46,3.91s10.46-1.75,10.46-3.91V31.29C62.76,29.13,58.08,27.38,52.31,27.38Z"/></g></g></svg>