<svg xmlns="http://www.w3.org/2000/svg" viewBox="0 0 79.02 79.01"><defs><style>.cls-1{fill:none;stroke:#3e4651;stroke-miterlimit:10;stroke-width:1.5px;}.cls-2{fill:#3e4651;}</style></defs><title>Asset 5</title><g id="Layer_2" data-name="Layer 2"><g id="Layer_1-2" data-name="Layer 1"><path class="cls-1" d="M39.51.75A38.76,38.76,0,1,0,78.27,39.51,38.8,38.8,0,0,0,39.51.75Z"/><path class="cls-2" d="M25.71,57.33a.7.7,0,0,1-.7-.7V22.39a.7.7,0,0,1,1.4,0V56.63A.7.7,0,0,1,25.71,57.33Z"/><path class="cls-2" d="M53.31,55.26H25.71a.7.7,0,0,1,0-1.4h27.6a.7.7,0,1,1,0,1.4Z"/><path class="cls-2" d="M53.31,57.33a.7.7,0,0,1-.7-.7V22.38a.7.7,0,0,1,1.4,0V56.63A.7.7,0,0,1,53.31,57.33Z"/><path class="cls-2" d="M53.3,25.14H25.71a.7.7,0,0,1,0-1.4H53.3a.7.7,0,1,1,0,1.4Z"/><path class="cls-2" d="M53,22.66H26a2.43,2.43,0,0,1,0-4.86H53a2.43,2.43,0,1,1,0,4.86ZM26,19.21a1,1,0,0,0,0,2.06H53a1,1,0,1,0,0-2.06Z"/><path class="cls-2" d="M53,61.2H26a2.43,2.43,0,1,1,0-4.86H53a2.43,2.43,0,1,1,0,4.86ZM26,57.75a1,1,0,1,0,0,2.06H53a1,1,0,1,0,0-2.06Z"/><path class="cls-2" d="M33.29,30H26.23a.7.7,0,0,1,0-1.4h7.05a.7.7,0,1,1,0,1.4Z"/><path class="cls-2" d="M52.78,50.43H45.73a.7.7,0,0,1,0-1.4h7.06a.7.7,0,0,1,0,1.4Z"/><path class="cls-2" d="M39.51,47.48a5.76,5.76,0,0,1-5.75-5.75c0-3.78,5-9.72,5.21-10a.63.63,0,0,1,.54-.25.7.7,0,0,1,.54.25c.21.25,5.21,6.26,5.21,10A5.75,5.75,0,0,1,39.51,47.48Zm0-14.16c-1.57,2-4.34,6-4.34,8.41a4.35,4.35,0,1,0,8.69,0C43.85,39.37,41.08,35.33,39.5,33.32Z"/></g></g></svg>