<svg xmlns="http://www.w3.org/2000/svg" viewBox="0 0 79.02 79.01"><defs><style>.cls-1,.cls-2{fill:none;stroke:#fff;stroke-width:1.5px;}.cls-1{stroke-miterlimit:10;}.cls-2{stroke-linecap:round;stroke-linejoin:round;}</style></defs><title>Asset 15</title><g id="Layer_2" data-name="Layer 2"><g id="Layer_1-2" data-name="Layer 1"><path class="cls-1" d="M39.51.75A38.76,38.76,0,1,0,78.27,39.51,38.8,38.8,0,0,0,39.51.75Z"/><path class="cls-2" d="M35,35.31a10.44,10.44,0,0,0-9.52-6.14"/><path class="cls-1" d="M45.41,33a11.25,11.25,0,0,0-11-8.93,11.12,11.12,0,0,0-4.29.85A11.26,11.26,0,0,0,25,29.19a10.26,10.26,0,0,0-3.51.77A10.41,10.41,0,0,0,15,39.27,7.67,7.67,0,0,0,19.71,53H41.46a10.21,10.21,0,0,0,3.9-.79A10.44,10.44,0,0,0,45.41,33Z"/><path class="cls-1" d="M49.42,22a10.33,10.33,0,0,0-4,.79,10.47,10.47,0,0,0-4.37,3.41A11.26,11.26,0,0,1,45.41,33a10.47,10.47,0,0,1,6.39,9.6s0,0,0,.06a10.21,10.21,0,0,0,1.64-.52,10.44,10.44,0,0,0-4-20.08Z"/><line class="cls-2" x1="43.08" y1="20.99" x2="40.64" y2="17.14"/><line class="cls-2" x1="49.45" y1="19.37" x2="49.45" y2="14.33"/><line class="cls-2" x1="62.63" y1="32.24" x2="67.15" y2="32.24"/><line class="cls-2" x1="60.93" y1="25.66" x2="64.89" y2="23.14"/><line class="cls-2" x1="56.19" y1="20.63" x2="58.78" y2="16.55"/><line class="cls-2" x1="60.93" y1="38.55" x2="64.48" y2="40.91"/><line class="cls-2" x1="56.19" y1="43.5" x2="58.12" y2="46.69"/><line class="cls-2" x1="18.84" y1="55.48" x2="17.73" y2="58.76"/><line class="cls-2" x1="27.73" y1="55.48" x2="26.62" y2="58.76"/><line class="cls-2" x1="36.61" y1="55.48" x2="35.5" y2="58.76"/><line class="cls-2" x1="45.5" y1="55.48" x2="44.39" y2="58.76"/><line class="cls-2" x1="22.4" y1="59.92" x2="21.29" y2="63.2"/><line class="cls-2" x1="31.28" y1="59.92" x2="30.17" y2="63.2"/><line class="cls-2" x1="40.16" y1="59.92" x2="39.06" y2="63.2"/></g></g></svg>