<svg xmlns="http://www.w3.org/2000/svg" viewBox="0 0 79.02 79.01"><defs><style>.cls-1,.cls-2{fill:none;stroke:#fff;stroke-width:1.5px;}.cls-1{stroke-miterlimit:10;}.cls-2{stroke-linecap:round;stroke-linejoin:round;}</style></defs><title>Asset 14</title><g id="Layer_2" data-name="Layer 2"><g id="Layer_1-2" data-name="Layer 1"><path class="cls-1" d="M39.51.75A38.76,38.76,0,1,0,78.27,39.51,38.8,38.8,0,0,0,39.51.75Z"/><path class="cls-2" d="M65.12,21.76a3.82,3.82,0,0,1-3.82,3.82H17.71a3.82,3.82,0,0,1-3.82-3.82h0a3.82,3.82,0,0,1,3.82-3.82h43.6a3.82,3.82,0,0,1,3.82,3.82Z"/><rect class="cls-2" x="17.42" y="25.57" width="44.18" height="35.5"/><path class="cls-2" d="M53.64,61.07a2,2,0,0,0,0-.34V33.48a2,2,0,0,0-2-2H27.35a2,2,0,0,0-2,2V60.73a2,2,0,0,0,0,.34Z"/><line class="cls-2" x1="21.81" y1="25.57" x2="21.81" y2="61.07"/><line class="cls-2" x1="26.31" y1="25.57" x2="26.31" y2="31.48"/><line class="cls-2" x1="30.16" y1="25.57" x2="30.16" y2="31.48"/><line class="cls-2" x1="34.02" y1="25.57" x2="34.02" y2="31.48"/><line class="cls-2" x1="37.88" y1="25.57" x2="37.88" y2="31.48"/><line class="cls-2" x1="41.74" y1="25.57" x2="41.74" y2="31.48"/><line class="cls-2" x1="45.59" y1="25.57" x2="45.59" y2="31.48"/><line class="cls-2" x1="49.45" y1="25.57" x2="49.45" y2="31.48"/><line class="cls-2" x1="53.31" y1="25.57" x2="53.31" y2="32.34"/><line class="cls-2" x1="57.81" y1="25.57" x2="57.81" y2="61.07"/><rect class="cls-2" x="28.42" y="34.57" width="22.17" height="26.5"/><line class="cls-1" x1="28.42" y1="37.82" x2="50.59" y2="37.82"/><line class="cls-1" x1="28.42" y1="41.16" x2="50.59" y2="41.16"/><line class="cls-1" x1="28.42" y1="44.49" x2="50.59" y2="44.49"/><line class="cls-1" x1="28.42" y1="47.82" x2="50.59" y2="47.82"/><line class="cls-1" x1="28.42" y1="51.16" x2="50.59" y2="51.16"/><line class="cls-1" x1="28.42" y1="54.49" x2="50.59" y2="54.49"/><line class="cls-1" x1="28.42" y1="57.82" x2="50.59" y2="57.82"/></g></g></svg>